# xmcd
#
# Track frame offsets: 
#        150
#        19845
#        34582
#        49385
#        80380
#
# Disc length: 1236 seconds
#
# Revision: 0
# Processed by: cddbd v1.5.2PL0 Copyright (c) Steve Scherf et al.
# Submitted via: ExactAudioCopy v1.0b1
#
DISCID=3504d205
DTITLE=山崎まさよし - アンジェラ
DYEAR=2006
DGENRE=J-POP
TTITLE0=アンジェラ
TTITLE1=long yesterday
TTITLE2=mud skiffle track XV （酒井家の音楽）
TTITLE3=アンジェラ （Instrumental）
TTITLE4=DATA
EXTD=
EXTT0=
EXTT1=
EXTT2=
EXTT3=
EXTT4=
PLAYORDER=
